<svg width="117" height="75" viewBox="0 0 117 75" fill="none" xmlns="http://www.w3.org/2000/svg">
<path d="M93.5964 0H23.4036C10.4838 0 0 10.4346 0 23.2938C0 36.153 10.4838 46.5876 23.4036 46.5876H93.1453C105.47 46.5876 116.044 37.2845 116.946 25.0359C117.938 11.3865 107.094 0 93.5964 0Z" fill="#00BD69"/>
<path d="M25.6595 60.219H29.1781V60.6141C29.1781 61.7276 28.8714 62.6076 28.2398 63.2542C27.6083 63.9187 26.7422 64.242 25.6595 64.242C24.5588 64.242 23.6746 63.8828 22.9709 63.2003C22.2671 62.5178 21.9062 61.5839 21.9062 60.3986C21.9062 59.2132 22.2671 58.2793 22.9528 57.5789C23.6385 56.8964 24.5407 56.5552 25.6414 56.5552C26.5076 56.5552 27.2654 56.7887 27.897 57.2377C28.5286 57.7046 28.9255 58.3512 29.0879 59.1593L27.8429 59.3569C27.7346 58.8001 27.5 58.3691 27.103 58.0638C26.7061 57.7585 26.2008 57.5968 25.6234 57.5968C24.8655 57.5968 24.252 57.8303 23.8009 58.3152C23.3498 58.8002 23.1152 59.4826 23.1152 60.3806C23.1152 61.2786 23.3498 61.9611 23.8009 62.446C24.252 62.9309 24.8655 63.1644 25.6234 63.1644C26.2369 63.1644 26.7422 63.0027 27.1391 62.6795C27.5361 62.3741 27.7887 61.8892 27.879 61.2427H25.6595V60.219Z" fill="#3F3F3F"/>
<path d="M36.7933 57.5967C37.479 58.2792 37.8399 59.2311 37.8399 60.4164C37.8399 61.6018 37.497 62.5357 36.8114 63.2181C36.1257 63.9006 35.2415 64.2419 34.1408 64.2419C33.0581 64.2419 32.21 63.9186 31.5965 63.2541C30.965 62.6075 30.6582 61.7275 30.6582 60.614V59.9315H36.5948C36.5587 59.2131 36.3061 58.6384 35.855 58.2253C35.4039 57.8123 34.8265 57.5967 34.1408 57.5967C33.5634 57.5967 33.0942 57.7225 32.7153 57.9559C32.3363 58.1894 32.0837 58.5306 31.9574 58.9617L30.7484 58.8539C30.9108 58.1715 31.3078 57.6147 31.9033 57.1837C32.4987 56.7526 33.2386 56.5371 34.1047 56.5371C35.2054 56.5551 36.0896 56.8963 36.7933 57.5967ZM35.855 62.6075C36.3061 62.2124 36.5407 61.6736 36.5948 60.9552H31.8672C31.8852 61.6197 32.1018 62.1585 32.4987 62.5716C32.8957 62.9847 33.437 63.1822 34.1588 63.1822C34.8445 63.1822 35.4039 63.0026 35.855 62.6075Z" fill="#3F3F3F"/>
<path d="M45.5084 56.6631V64.1523H44.4979L40.7808 58.8542V64.1523H39.5898V56.6631H40.5823L44.3175 61.9612V56.6631H45.5084Z" fill="#3F3F3F"/>
<path d="M53.3388 57.3275C53.9884 57.8303 54.3673 58.5128 54.4936 59.3749L53.2486 59.4826C53.1403 58.89 52.8877 58.441 52.4907 58.1177C52.0757 57.7944 51.5704 57.6328 50.975 57.6328C50.2171 57.6328 49.6216 57.8842 49.1705 58.3871C48.7194 58.89 48.4848 59.5724 48.4848 60.4166C48.4848 61.2966 48.7194 61.9611 49.1886 62.464C49.6577 62.9489 50.2532 63.2003 50.993 63.2003C51.5885 63.2003 52.0937 63.0387 52.5087 62.7334C52.9057 62.428 53.1583 61.997 53.2666 61.4223L54.5297 61.5301C54.3854 62.3742 53.9884 63.0387 53.3568 63.5236C52.7072 64.0085 51.9313 64.2599 51.0291 64.2599C49.9284 64.2599 49.0262 63.9187 48.3224 63.2362C47.6187 62.5538 47.2578 61.6199 47.2578 60.4166C47.2578 59.2312 47.6187 58.2973 48.3044 57.5969C48.9901 56.9144 49.9103 56.5732 51.0111 56.5732C51.9133 56.5552 52.6892 56.8066 53.3388 57.3275Z" fill="#3F3F3F"/>
<path d="M57.3452 56.6631V63.0927H60.918V64.1523H56.1543V56.6631H57.3452Z" fill="#3F3F3F"/>
<path d="M67.9906 57.5967C68.6763 58.2792 69.0371 59.2311 69.0371 60.4164C69.0371 61.6018 68.6943 62.5357 68.0086 63.2181C67.3229 63.9006 66.4388 64.2419 65.338 64.2419C64.2554 64.2419 63.4073 63.9186 62.7938 63.2541C62.1622 62.6075 61.8555 61.7275 61.8555 60.614V59.9315H67.7921C67.756 59.2131 67.5034 58.6384 67.0523 58.2253C66.6012 57.8123 66.0237 57.5967 65.338 57.5967C64.7606 57.5967 64.2915 57.7225 63.9125 57.9559C63.5336 58.1894 63.281 58.5306 63.1547 58.9617L61.9457 58.8539C62.1081 58.1715 62.5051 57.6147 63.1005 57.1837C63.696 56.7526 64.4358 56.5371 65.302 56.5371C66.4027 56.5551 67.3049 56.8963 67.9906 57.5967ZM67.0703 62.6075C67.5214 62.2124 67.756 61.6736 67.8101 60.9552H63.0825C63.1005 61.6197 63.3171 62.1585 63.714 62.5716C64.111 62.9847 64.6524 63.1822 65.3741 63.1822C66.0598 63.1822 66.6192 63.0026 67.0703 62.6075Z" fill="#3F3F3F"/>
<path d="M76.5809 64.1523H75.2456L73.6577 61.2967H71.9976V64.1523H70.8066V56.6631H73.8381C74.5418 56.6631 75.1193 56.8606 75.5523 57.2558C75.9854 57.6688 76.2019 58.2435 76.2019 58.9619C76.2019 59.5007 76.0937 59.9318 75.8591 60.291C75.6245 60.6502 75.2997 60.9196 74.9027 61.0812L76.5809 64.1523ZM71.9795 60.2191H73.6757C74.0546 60.2191 74.3614 60.1114 74.596 59.8958C74.8305 59.6803 74.9569 59.375 74.9569 58.9799C74.9569 58.5668 74.8305 58.2615 74.596 58.046C74.3614 57.8305 74.0366 57.7227 73.6757 57.7227H71.9795V60.2191Z" fill="#3F3F3F"/>
<path d="M87.4979 56.6631L84.3401 64.1523H83.3296L80.1719 56.6631H81.453L83.8349 62.3204L86.1987 56.6631H87.4979Z" fill="#3F3F3F"/>
<path d="M94.4437 57.5967C95.1294 58.2792 95.4903 59.2311 95.4903 60.4164C95.4903 61.6018 95.1474 62.5357 94.4617 63.2181C93.7761 63.9006 92.8919 64.2419 91.7912 64.2419C90.7085 64.2419 89.8604 63.9186 89.2469 63.2541C88.6154 62.6075 88.3086 61.7275 88.3086 60.614V59.9315H94.2452C94.2091 59.2131 93.9565 58.6384 93.5054 58.2253C93.0543 57.8123 92.4769 57.5967 91.7912 57.5967C91.2137 57.5967 90.7446 57.7225 90.3657 57.9559C89.9867 58.1894 89.7341 58.5306 89.6078 58.9617L88.3988 58.8539C88.5612 58.1715 88.9582 57.6147 89.5537 57.1837C90.1491 56.7526 90.8889 56.5371 91.7551 56.5371C92.8558 56.5551 93.74 56.8963 94.4437 57.5967ZM93.5054 62.6075C93.9565 62.2124 94.1911 61.6736 94.2452 60.9552H89.5176C89.5356 61.6197 89.7521 62.1585 90.1491 62.5716C90.5461 62.9847 91.0874 63.1822 91.8092 63.1822C92.4949 63.1822 93.0543 63.0026 93.5054 62.6075Z" fill="#3F3F3F"/>
<path d="M23.4028 65.6428C23.5472 65.7864 23.6193 65.9481 23.6193 66.1456C23.6193 66.3432 23.5472 66.5228 23.4028 66.6485C23.2584 66.7922 23.096 66.864 22.8976 66.864C22.6991 66.864 22.5367 66.7922 22.3923 66.6485C22.248 66.5228 22.1758 66.3432 22.1758 66.1456C22.1758 65.9481 22.248 65.7864 22.3923 65.6428C22.5367 65.4991 22.6991 65.4272 22.8976 65.4272C23.078 65.4272 23.2584 65.4991 23.4028 65.6428ZM23.4569 74.9998H22.266V67.5106H23.4569V74.9998Z" fill="#3F3F3F"/>
<path d="M28.5281 67.5107C29.6108 67.5107 30.495 67.834 31.1806 68.5165C31.8663 69.181 32.2092 70.1149 32.2092 71.2643C32.2092 72.4138 31.8663 73.3297 31.1806 73.9942C30.495 74.6587 29.6108 75 28.5281 75H25.5508V67.5107H28.5281ZM26.7056 68.5345V73.9763H28.5101C29.2679 73.9763 29.8634 73.7428 30.3145 73.2579C30.7656 72.7909 30.9821 72.1084 30.9821 71.2464C30.9821 70.3843 30.7656 69.7018 30.3145 69.2169C29.8634 68.75 29.2679 68.5165 28.5101 68.5165H26.7056V68.5345Z" fill="#3F3F3F"/>
<path d="M41.8809 67.5107V75H40.69V70.1149L38.3082 74.9461H37.5322L35.1323 70.1149V75H33.9414V67.5107H34.988L37.9112 73.222L40.8344 67.5107H41.8809Z" fill="#3F3F3F"/>
<path d="M47.4397 67.5107L50.6336 75H49.3344L48.6487 73.3297H45.2564L44.5707 75H43.2715L46.4473 67.5107H47.4397ZM46.9345 69.2528L45.6894 72.2701H48.1796L46.9345 69.2528Z" fill="#3F3F3F"/>
<path d="M57.9049 67.5107V75H56.8944L53.1773 69.7198V75H51.9863V67.5107H52.9968L56.714 72.8089V67.5107H57.9049Z" fill="#3F3F3F"/>
<path d="M68.569 67.5107V75H67.5585L63.8413 69.7198V75H62.6504V67.5107H63.6428L67.378 72.8089V67.5107H68.569Z" fill="#3F3F3F"/>
<path d="M74.1077 67.5107L77.3016 75H76.0024L75.3167 73.3297H71.9243L71.2386 75H69.9395L73.1153 67.5107H74.1077ZM73.6205 69.2528L72.3754 72.2701H74.8656L73.6205 69.2528Z" fill="#3F3F3F"/>
<path d="M83.8532 67.5107V68.4087L79.9376 73.9403H83.9435V75H78.4219V74.102L82.3195 68.5704H78.5121V67.5107H83.8532Z" fill="#3F3F3F"/>
<path d="M86.5591 65.6428C86.7034 65.7864 86.7756 65.9481 86.7756 66.1456C86.7756 66.3432 86.7034 66.5228 86.5591 66.6485C86.4147 66.7922 86.2523 66.864 86.0538 66.864C85.8553 66.864 85.6929 66.7922 85.5486 66.6485C85.4042 66.5228 85.332 66.3432 85.332 66.1456C85.332 65.9481 85.4042 65.7864 85.5486 65.6428C85.6929 65.4991 85.8553 65.4272 86.0538 65.4272C86.2343 65.4272 86.4147 65.4991 86.5591 65.6428ZM86.6132 74.9998H85.4223V67.5106H86.6132V74.9998Z" fill="#3F3F3F"/>
<path d="M94.4622 75H93.1088L91.5209 72.1444H89.8609V75H88.6699V67.5107H91.7014C92.4051 67.5107 92.9825 67.7083 93.4156 68.1034C93.8487 68.5165 94.0652 69.0912 94.0652 69.8096C94.0652 70.3484 93.9569 70.7794 93.7224 71.1386C93.4878 71.4978 93.163 71.7672 92.766 71.9288L94.4622 75ZM89.8609 71.0847H91.557C91.936 71.0847 92.2427 70.977 92.4773 70.7615C92.7119 70.5459 92.8382 70.2406 92.8382 69.8455C92.8382 69.4324 92.7119 69.1271 92.4773 68.9116C92.2427 68.6961 91.9179 68.5883 91.557 68.5883H89.8609V71.0847Z" fill="#3F3F3F"/>
<path d="M97.187 67.5107V73.9403H100.742V75H95.9961V67.5107H97.187Z" fill="#3F3F3F"/>
<path d="M103.305 65.6428C103.449 65.7864 103.522 65.9481 103.522 66.1456C103.522 66.3432 103.449 66.5228 103.305 66.6485C103.161 66.7922 102.998 66.864 102.8 66.864C102.601 66.864 102.439 66.7922 102.295 66.6485C102.15 66.5228 102.078 66.3432 102.078 66.1456C102.078 65.9481 102.15 65.7864 102.295 65.6428C102.439 65.4991 102.601 65.4272 102.8 65.4272C102.998 65.4272 103.161 65.4991 103.305 65.6428ZM103.359 74.9998H102.168V67.5106H103.359V74.9998Z" fill="#3F3F3F"/>
<path d="M111.551 67.5107L108.718 71.9827V75H107.527V71.9827L104.676 67.5107H106.065L108.122 70.7974L110.161 67.5107H111.551Z" fill="#3F3F3F"/>
<path d="M114.022 65.6428C114.166 65.7864 114.238 65.9481 114.238 66.1456C114.238 66.3432 114.166 66.5228 114.022 66.6485C113.878 66.7922 113.715 66.864 113.517 66.864C113.318 66.864 113.156 66.7922 113.011 66.6485C112.867 66.5228 112.795 66.3432 112.795 66.1456C112.795 65.9481 112.867 65.7864 113.011 65.6428C113.156 65.4991 113.318 65.4272 113.517 65.4272C113.715 65.4272 113.878 65.4991 114.022 65.6428ZM114.076 74.9998H112.885V67.5106H114.076V74.9998Z" fill="#3F3F3F"/>
<path d="M38.1634 29.3464H28.672L26.2541 37.2667H21.1836L30.3321 9.32129H36.7198L45.8684 37.2667H40.6355L38.1634 29.3464ZM36.9725 25.4492L33.3997 14.0088L29.863 25.4492H36.9725Z" fill="white"/>
<path d="M50.3443 35.1474L63.3904 13.3443H49.5684L50.1638 9.32129H69.8142V11.4405L56.7681 33.2437H70.6803L70.0849 37.2667H50.3443V35.1474Z" fill="white"/>
<path d="M76.2012 9.32129H94.4982L95.0937 13.3443H80.9649V20.7437H94.4982L95.0937 24.7308H80.9649V33.2437H95.0937L94.4982 37.2667H76.2012V9.32129Z" fill="white"/>
</svg>
