<?xml version="1.0" encoding="UTF-8"?><svg id="Logo" xmlns="http://www.w3.org/2000/svg" viewBox="0 0 181.55 234.52"><defs><style>.cls-1{fill:#00b8fc;}</style></defs><path class="cls-1" d="M69.47,196.88v-5.35h-9.44c-1.52-.52-3.15-.84-4.82-.84-8.13,0-14.52,6.19-14.52,14.26s6.4,14.26,14.52,14.26,14.52-6.19,14.52-14.26c0-2.73-.73-5.4-2.2-7.39l1.94-.68Zm-14.26,15.83c-4.3,0-7.71-3.41-7.71-7.81s3.41-7.71,7.71-7.71,7.76,3.36,7.76,7.76-3.41,7.76-7.76,7.76Zm-31.35-22.02c-8.13,0-14.52,6.19-14.52,14.26s6.4,14.26,14.52,14.26,14.52-6.19,14.52-14.26-6.4-14.26-14.52-14.26Zm0,22.02c-4.3,0-7.71-3.41-7.71-7.81s3.41-7.71,7.71-7.71,7.76,3.36,7.76,7.76-3.41,7.76-7.76,7.76ZM0,218.42H6.71v-38.27H0v38.27Zm72.4,0h6.71v-26.89h-6.71v26.89Zm-17.2,9.54c-4.3,0-7.71-3.35-7.71-7.71h-6.82c0,8.07,6.4,14.26,14.52,14.26s14.52-6.19,14.52-14.26h-6.82c0,4.35-3.41,7.71-7.71,7.71Zm55.89-37.28c-8.07,0-14.21,6.19-14.21,14.42s5.61,14.1,14.31,14.1c4.82,0,9.12-1.78,12.27-5.14l-4.51-4.46c-2.2,2.1-4.56,3.62-7.6,3.62-3.67,0-6.45-2.1-7.39-5.61h20.92v-1.62c0-9.17-5.66-15.31-13.79-15.31Zm-7.29,11.48c.89-3.57,3.62-5.56,7.13-5.56s6.13,1.94,6.97,5.56h-14.1Zm66.69-11.48c-3.3,0-6.13,1.26-8.13,3.41v-13.94h-6.71v38.27h6.71v-14.63c0-3.88,2.46-6.55,6.55-6.55,3.83,0,5.92,2.36,5.92,6.55v14.63h6.71v-15.83c0-7.44-4.67-11.9-11.06-11.9Zm-28.94,6.5c2.83,0,5.14,1.47,6.92,3.51l4.67-4.61c-2.62-3.3-6.76-5.4-11.48-5.4-8.13,0-14.52,6.19-14.52,14.26s6.4,14.26,14.52,14.26c4.72,0,8.86-2.1,11.48-5.4l-4.67-4.61c-1.73,1.99-4.09,3.51-6.97,3.51-4.3,0-7.6-3.36-7.6-7.76s3.3-7.76,7.65-7.76Zm-49.23-13.95h-6.71v8.28h-3.62v5.98h3.62v20.92h6.71v-20.92h3.67v-5.98h-3.67v-8.28Zm-16.62-3.83c-2.46,0-4.4,1.94-4.4,4.46s1.94,4.4,4.4,4.4,4.51-1.94,4.51-4.4-1.94-4.46-4.51-4.46Zm16.92-27.97c-42.04,0-76.25-33.95-76.25-75.73S50.59,0,92.63,0V31.43c-24.79,0-44.43,19.89-44.43,44.29s19.63,44.3,44.43,44.3v31.43Zm37.2-21.42h31.26V62.12H93.18v31.26h36.65v36.65Z"/></svg>